# xmcd
# Track frame offsets:
# 150
# 11045
# 20752
# 34190
# 44350
# 55755
# 66232
# 76655
# 88867
# 98337
# 111175
# 122157
# 132132
# 144030
# 157427
# 170307
# 182882
# 194200
#
# Disc length: 2757 seconds
# Revision: 0
# Processed by: cddbd v1.4PL0 Copyright (c) Steve Scherf et al.
# Submitted via: VisiTrax 2.9.5.180 - For more info visit www.synapsa.com
#
DISCID=f70ac312
DTITLE=Hank Locklin - Country from the heart
DYEAR=1994
DGENRE=
TTITLE0=Please help me I'm falling
TTITLE1=Geisha girl
TTITLE2=Happy birthday to me
TTITLE3=Happy journey
TTITLE4=Send me the pillow that you dream on
TTITLE5=These arms you push away
TTITLE6=Let me be the one
TTITLE7=It's a little more heaven where you are
TTITLE8=Flying south
TTITLE9=From here to there to you
TTITLE10=I was coming home to you
TTITLE11=We're gonna go fishin'
TTITLE12=Paper face
TTITLE13=Come share the sunshine with me
TTITLE14=No one is sweeter than you
TTITLE15=A year of time
TTITLE16=To whom it may concern
TTITLE17=Song of the whispering leaves
EXTD=
EXTT0=
EXTT1=
EXTT2=
EXTT3=
EXTT4=
EXTT5=
EXTT6=
EXTT7=
EXTT8=
EXTT9=
EXTT10=
EXTT11=
EXTT12=
EXTT13=
EXTT14=
EXTT15=
EXTT16=
EXTT17=
PLAYORDER=
